<svg width="25" height="24" viewBox="0 0 25 24" fill="#007E2F"
    xmlns="http://www.w3.org/2000/svg">
    <path d="M9.77269 22C10.2748 22 10.6818 21.5736 10.6818 21.0477C10.6818 20.5217 10.2748 20.0953 9.77269 20.0953C9.27061 20.0953 8.8636 20.5217 8.8636 21.0477C8.8636 21.5736 9.27061 22 9.77269 22Z" stroke="#007E2F" stroke-width="2" stroke-linecap="round" stroke-linejoin="round"/>
    <path d="M19.7727 22C20.2748 22 20.6818 21.5736 20.6818 21.0477C20.6818 20.5217 20.2748 20.0953 19.7727 20.0953C19.2706 20.0953 18.8636 20.5217 18.8636 21.0477C18.8636 21.5736 19.2706 22 19.7727 22Z" stroke="#007E2F" stroke-width="2" stroke-linecap="round" stroke-linejoin="round"/>
    <path d="M2.5 2H6.13636L8.57273 14.7524C8.65586 15.1909 8.88355 15.5847 9.21595 15.865C9.54835 16.1454 9.96427 16.2943 10.3909 16.2857H19.2273C19.6539 16.2943 20.0698 16.1454 20.4022 15.865C20.7346 15.5847 20.9623 15.1909 21.0455 14.7524L22.5 6.76191H7.04545" stroke="#007E2F" stroke-width="2" stroke-linecap="round" stroke-linejoin="round"/>
</svg>
