<svg width="25" height="24" viewBox="0 0 25 24" fill="none"
    xmlns="http://www.w3.org/2000/svg">
    <path d="M12.5 10.9C11.895 10.9 11.4 11.395 11.4 12C11.4 12.605 11.895 13.1 12.5 13.1C12.7917 13.1 13.0715 12.9841 13.2778 12.7778C13.4841 12.5715 13.6 12.2917 13.6 12C13.6 11.7083 13.4841 11.4285 13.2778 11.2222C13.0715 11.0159 12.7917 10.9 12.5 10.9ZM12.5 2C6.975 2 2.5 6.475 2.5 12C2.5 17.52 6.975 22 12.5 22C18.025 22 22.5 17.52 22.5 12C22.5 6.475 18.025 2 12.5 2ZM14.69 14.19L6.5 18L10.31 9.81L18.5 6L14.69 14.19Z" fill="#007E2F"/>
</svg>
