<svg width="22" height="22" viewBox="0 0 22 22" fill="none"
    xmlns="http://www.w3.org/2000/svg">
    <path d="M11.1847 6.01248H20.2647C20.7304 6.01248 21.1 5.6119 21.1 5.13285C21.1 4.65381 20.7304 4.25321 20.2647 4.25321H11.1847C10.719 4.25321 10.3494 4.6538 10.3494 5.13285C10.3494 5.61188 10.719 6.01248 11.1847 6.01248Z" fill="#505050" stroke="#505050" stroke-width="0.2"/>
    <path d="M1.73526 6.01248H4.89746C5.36309 6.01248 5.73272 5.6119 5.73272 5.13285C5.73272 4.65381 5.36311 4.25321 4.89746 4.25321H1.73526C1.26963 4.25321 0.9 4.6538 0.9 5.13285C0.9 5.61188 1.26961 6.01248 1.73526 6.01248Z" fill="#505050" stroke="#505050" stroke-width="0.2"/>
    <path d="M1.7366 17.7865H10.8167C11.2824 17.7865 11.6519 17.3843 11.6519 16.9069C11.6519 16.4279 11.2823 16.0273 10.8167 16.0273H1.7366C1.27097 16.0273 0.901343 16.4278 0.901343 16.9069C0.901343 17.3859 1.27095 17.7865 1.7366 17.7865Z" fill="#505050" stroke="#505050" stroke-width="0.2"/>
    <path d="M17.1025 17.7865H20.2647C20.7305 17.7865 21.1 17.3843 21.1 16.9069C21.1 16.4279 20.7304 16.0273 20.2647 16.0273H17.1025C16.6369 16.0273 16.2673 16.4278 16.2673 16.9069C16.2673 17.3859 16.6369 17.7865 17.1025 17.7865Z" fill="#505050" stroke="#505050" stroke-width="0.2"/>
    <path d="M4.02471 5.13285C4.02471 7.48414 5.82971 9.3657 8.02232 9.3657C10.2151 9.3657 12.0199 7.48393 12.0199 5.13285C12.0199 2.78156 10.2149 0.9 8.02232 0.9C5.791 0.9 4.02471 2.82261 4.02471 5.13285ZM5.69537 5.17246C5.69537 3.77954 6.75796 2.69903 8.02232 2.69903C9.28664 2.69903 10.3493 3.78105 10.3493 5.17246C10.3493 6.56538 9.28668 7.64588 8.02232 7.64588C6.72255 7.64588 5.69537 6.52783 5.69537 5.17246Z" fill="#007E2F" stroke="#007E2F" stroke-width="0.2"/>
    <path d="M17.977 16.8688H17.977V16.8672C17.977 14.5159 16.172 12.6343 13.9794 12.6343C11.7481 12.6343 9.98177 14.5569 9.98177 16.8672C9.98177 19.2185 11.7868 21.1 13.9794 21.1C16.1721 21.1 17.9389 19.2155 17.977 16.8688ZM11.6524 16.9068C11.6524 15.5139 12.715 14.4333 13.9794 14.4333C15.2397 14.4333 16.2696 15.5114 16.3063 16.9081C16.3057 18.3004 15.2433 19.3802 13.9794 19.3802C12.6796 19.3802 11.6524 18.2621 11.6524 16.9068Z" fill="#007E2F" stroke="#007E2F" stroke-width="0.2"/>
</svg>
