<svg width="24" height="24" viewBox="0 0 24 24" fill="none"
    xmlns="http://www.w3.org/2000/svg">
    <path d="M19.1217 20.6378H15.4305L15.4305 16.3659C15.4305 15.1142 14.4109 14.0946 13.1591 14.0946H10.8417C9.58997 14.0946 8.57038 15.1142 8.57038 16.3659V20.6378H4.87916C4.0452 20.6378 3.3628 19.9554 3.3628 19.1215V11.9986C3.3628 11.568 3.50153 11.2319 3.80697 10.9264L3.80698 10.9264L10.9274 3.80508C11.5175 3.2151 12.4828 3.21511 13.0727 3.80508L13.1788 3.69901L13.0727 3.80508L20.1947 10.9264C20.5002 11.2319 20.6389 11.5672 20.6389 11.9986V19.1215C20.6389 19.9554 19.9565 20.6378 19.1217 20.6378ZM2.73748 9.85694L2.73739 9.85702C2.1585 10.4368 1.85061 11.1778 1.85061 11.9986V19.1215C1.85061 20.7909 3.20973 22.15 4.87913 22.15H9.32644C9.74375 22.15 10.0825 21.8112 10.0825 21.3939V16.3659C10.0825 15.9488 10.4245 15.6068 10.8417 15.6068H13.1591C13.5763 15.6068 13.9183 15.9488 13.9183 16.3659V21.3939C13.9183 21.8112 14.2571 22.15 14.6744 22.15H19.1217C20.791 22.15 22.1503 20.7909 22.1503 19.1215V11.9986C22.1503 11.1779 21.8433 10.4369 21.2634 9.85694L14.1421 2.7356C12.9613 1.55483 11.0388 1.55476 9.85882 2.7356C9.8588 2.73562 9.85879 2.73563 9.85878 2.73564L2.73748 9.85694Z" fill="#939393" stroke="#939393" stroke-width="0.3"/>
</svg>
