<svg width="25" height="24" viewBox="0 0 25 24" fill="none"
    xmlns="http://www.w3.org/2000/svg">
    <path fill-rule="evenodd" clip-rule="evenodd" d="M22.4989 11.9983V19.1216C22.4989 20.7075 21.2064 22 19.6205 22H15.1734C14.8383 22 14.5675 21.7283 14.5675 21.3941V16.3663C14.5675 15.8663 14.1587 15.4575 13.6587 15.4575H11.3409C10.8409 15.4575 10.432 15.8663 10.432 16.3663V21.3941C10.432 21.7292 10.1603 22 9.82614 22H5.37904C3.79312 22 2.50061 20.7075 2.50061 19.1216V11.9983C2.50061 11.217 2.79228 10.5139 3.34436 9.96267L10.4632 2.84115C11.5848 1.71962 13.4121 1.71962 14.5343 2.84115L21.6558 9.96267C22.2071 10.5139 22.4996 11.217 22.4996 11.9983H22.4989Z" fill="#007E2F"/>
</svg>
