<svg width="18" height="21" viewBox="0 0 18 21" fill="none"
    xmlns="http://www.w3.org/2000/svg">
    <path d="M0.900063 16.0024L0.400836 15.3089C0.0708477 15.5126 -0.0762405 15.8924 0.0386866 16.2439C0.153614 16.5954 0.503465 16.8358 0.900063 16.8358V16.0024ZM17.0999 16.0024V16.8358C17.4966 16.8358 17.8464 16.5954 17.9613 16.2439C18.0762 15.8924 17.9292 15.5126 17.5991 15.3089L17.0999 16.0024ZM15.2999 8.50127C15.2999 6.95395 14.6362 5.46999 13.4547 4.37587L12.1819 5.55456C13.0258 6.33607 13.5 7.39604 13.5 8.50127H15.2999ZM13.4547 4.37587C12.2733 3.28174 10.6708 2.66707 9 2.66707V4.33399C10.1935 4.33399 11.3381 4.77303 12.1819 5.55456L13.4547 4.37587ZM9 2.66707C7.32913 2.66707 5.72673 3.28174 4.54525 4.37587L5.81804 5.55456C6.66194 4.77303 7.80653 4.33399 9 4.33399V2.66707ZM4.54525 4.37587C3.36379 5.46999 2.70004 6.95394 2.70004 8.50127H4.50003C4.50003 7.39604 4.97412 6.33607 5.81804 5.55456L4.54525 4.37587ZM2.70004 8.50127C2.70004 11.2956 2.05469 13.0308 1.45995 14.0405C1.16134 14.5475 0.870564 14.8801 0.668581 15.0776C0.567354 15.1765 0.487809 15.2421 0.439916 15.2791C0.415956 15.2976 0.399888 15.3089 0.392958 15.3137C0.389493 15.3161 0.388314 15.3169 0.389574 15.316C0.390204 15.3156 0.391088 15.3149 0.392958 15.3137C0.393893 15.3131 0.395343 15.3124 0.396595 15.3115C0.397222 15.3111 0.397889 15.3107 0.398595 15.3103C0.398948 15.3101 0.399509 15.3097 0.399685 15.3096C0.400256 15.3093 0.400836 15.3089 0.900063 16.0024C1.39929 16.6959 1.39989 16.6955 1.4005 16.6951C1.40072 16.695 1.40134 16.6946 1.40177 16.6943C1.40265 16.6938 1.40355 16.6932 1.40451 16.6926C1.40642 16.6914 1.40849 16.6901 1.41072 16.6887C1.41519 16.6859 1.4203 16.6826 1.42604 16.6788C1.43752 16.6713 1.4515 16.6621 1.4678 16.6508C1.50043 16.6283 1.54237 16.5981 1.59224 16.5596C1.69199 16.4826 1.82339 16.3724 1.97528 16.224C2.27954 15.9265 2.66377 15.4778 3.04015 14.8388C3.7954 13.5565 4.50003 11.5411 4.50003 8.50127H2.70004ZM0.900063 16.8358H17.0999V15.1689H0.900063V16.8358ZM17.0999 16.0024C17.5992 15.3089 17.5997 15.3093 17.6003 15.3096C17.6005 15.3097 17.601 15.3101 17.6014 15.3103C17.6021 15.3107 17.6027 15.3111 17.6034 15.3115C17.6046 15.3124 17.6057 15.313 17.6067 15.3136C17.6085 15.3148 17.6098 15.3156 17.6104 15.316C17.6117 15.3169 17.6101 15.316 17.6067 15.3136C17.5998 15.3089 17.584 15.2976 17.5601 15.2791C17.5122 15.2421 17.4327 15.1765 17.3314 15.0776C17.1294 14.8801 16.8387 14.5475 16.54 14.0405C15.9453 13.0308 15.2999 11.2956 15.2999 8.50127H13.5C13.5 11.5411 14.2046 13.5565 14.9598 14.8388C15.3362 15.4778 15.7204 15.9265 16.0247 16.224C16.1766 16.3724 16.308 16.4826 16.4077 16.5596C16.4576 16.5981 16.4995 16.6283 16.5322 16.6508C16.5485 16.6621 16.5625 16.6713 16.574 16.6788C16.5797 16.6826 16.5848 16.6859 16.5893 16.6887C16.5915 16.6901 16.5936 16.6914 16.5955 16.6926C16.5965 16.6932 16.5974 16.6938 16.5982 16.6943C16.5986 16.6946 16.5993 16.695 16.5995 16.6951C16.6001 16.6955 16.6007 16.6959 17.0999 16.0024Z" fill="#505050"/>
    <path d="M11.335 19.7542C11.5844 19.3561 11.4381 18.8461 11.0081 18.6151C10.5782 18.3841 10.0275 18.5197 9.77805 18.9178L11.335 19.7542ZM8.22106 18.9178C7.97166 18.5197 7.42093 18.3841 6.99098 18.6151C6.56103 18.8461 6.41468 19.3561 6.66408 19.7542L8.22106 18.9178ZM9.77805 18.9178C9.69893 19.0441 9.58538 19.149 9.44875 19.2218L10.3472 20.6663C10.757 20.4477 11.0977 20.1331 11.335 19.7542L9.77805 18.9178ZM9.44875 19.2218C9.31213 19.2947 9.15723 19.3331 8.99956 19.3331V21C9.47256 21 9.93727 20.8849 10.3472 20.6663L9.44875 19.2218ZM8.99956 19.3331C8.84189 19.3331 8.68698 19.2947 8.55036 19.2218L7.65196 20.6663C8.06185 20.8849 8.52655 21 8.99956 21V19.3331ZM8.55036 19.2218C8.41373 19.149 8.30018 19.0441 8.22106 18.9178L6.66408 19.7542C6.90142 20.1331 7.24209 20.4477 7.65196 20.6663L8.55036 19.2218Z" fill="#505050"/>
    <path d="M13.3 8C15.233 8 16.8 6.433 16.8 4.5C16.8 2.567 15.233 1 13.3 1C11.367 1 9.79996 2.567 9.79996 4.5C9.79996 6.433 11.367 8 13.3 8Z" fill="#007E2F"/>
    <path d="M13.3 7.56262C14.9913 7.56262 16.3625 6.19149 16.3625 4.50012C16.3625 2.80875 14.9913 1.43762 13.3 1.43762C11.6086 1.43762 10.2375 2.80875 10.2375 4.50012C10.2375 6.19149 11.6086 7.56262 13.3 7.56262Z" fill="#007E2F" stroke="#EDEDED"/>
</svg>
